<?xml version="1.0" encoding="UTF-8" standalone="no"?>
<!-- Created with Inkscape (http://www.inkscape.org/) -->

<svg
   xmlns:osb="http://www.openswatchbook.org/uri/2009/osb"
   xmlns:dc="http://purl.org/dc/elements/1.1/"
   xmlns:cc="http://creativecommons.org/ns#"
   xmlns:rdf="http://www.w3.org/1999/02/22-rdf-syntax-ns#"
   xmlns:svg="http://www.w3.org/2000/svg"
   xmlns="http://www.w3.org/2000/svg"
   xmlns:xlink="http://www.w3.org/1999/xlink"
   xmlns:sodipodi="http://sodipodi.sourceforge.net/DTD/sodipodi-0.dtd"
   xmlns:inkscape="http://www.inkscape.org/namespaces/inkscape"
   id="svg3361"
   version="1.1"
   inkscape:version="0.91 r13725"
   xml:space="preserve"
   width="491.11124"
   height="413.36261"
   viewBox="0 0 491.11124 413.36261"
   sodipodi:docname="logo.svg"><metadata
     id="metadata3367"><rdf:RDF><cc:Work
         rdf:about=""><dc:format>image/svg+xml</dc:format><dc:type
           rdf:resource="http://purl.org/dc/dcmitype/StillImage" /><dc:title></dc:title></cc:Work></rdf:RDF></metadata><defs
     id="defs3365"><linearGradient
       id="linearGradient4391"
       osb:paint="solid"><stop
         style="stop-color:#000000;stop-opacity:1;"
         offset="0"
         id="stop4393" /></linearGradient><clipPath
       clipPathUnits="userSpaceOnUse"
       id="clipPath3377"><path
         d="M 0,3854.99 0,0 l 4379.31,0 0,3854.99 -4379.31,0 z"
         id="path3379"
         inkscape:connector-curvature="0" /></clipPath><path
       d="m 380.04527,722.18824 c 0,0 -94.088,-39.412 -155.727,-39.412 -61.641,0 -154.64742,39.412 -154.64742,39.412 l 0,-52.9609 c 0,0 61.64642,-39.4082 153.56442,-39.4082 91.918,0 156.81,39.4082 156.81,39.4082 l 0,52.9609"
       style="fill-opacity:1;fill-rule:nonzero;stroke:none"
       id="path3505-1-7"
       inkscape:connector-curvature="0"
       inkscape:transform-center-x="1.6510276"
       inkscape:transform-center-y="1.6510276" /></defs><sodipodi:namedview
     pagecolor="#ffffff"
     bordercolor="#666666"
     borderopacity="1"
     objecttolerance="10"
     gridtolerance="10"
     guidetolerance="10"
     inkscape:pageopacity="0"
     inkscape:pageshadow="2"
     inkscape:window-width="1920"
     inkscape:window-height="1017"
     id="namedview3363"
     showgrid="false"
     inkscape:zoom="1.2113668"
     inkscape:cx="497.2038"
     inkscape:cy="161.71031"
     inkscape:window-x="-8"
     inkscape:window-y="-8"
     inkscape:window-maximized="1"
     inkscape:current-layer="g4525"
     fit-margin-top="0"
     fit-margin-left="0"
     fit-margin-right="0"
     fit-margin-bottom="0" /><g
     id="g3369"
     inkscape:groupmode="layer"
     inkscape:label="Bakery"
     transform="matrix(1.25,0,0,-1.25,-144.12534,547.6465)"><g
       id="g4525"><g
         id="g4614"
         transform="translate(-17.831098,10.566577)"><path
           inkscape:connector-curvature="0"
           id="path3383"
           style="fill:#e1e9c9;fill-opacity:1;fill-rule:nonzero;stroke:none"
           d="m 357.40737,105.82262 c -8.467,1.4692 -12.999,12.5391 -12.999,12.5391 0,0 7.316,4.9508 15.783,3.4828 8.47,-1.4758 18.55,-9.8359 18.55,-9.8359 0,0 -12.861,-7.6551 -21.334,-6.186" /><path
           inkscape:connector-curvature="0"
           id="path3385"
           style="fill:#e1e9c9;fill-opacity:1;fill-rule:nonzero;stroke:none"
           d="m 343.92337,138.90782 c -4.845,-7.0992 -0.071,-18.0621 -0.071,-18.0621 0,0 8.65,1.7937 13.497,8.8871 4.847,7.1059 5.88,20.1559 5.88,20.1559 0,0 -14.456,-3.886 -19.306,-10.9809" /><path
           inkscape:connector-curvature="0"
           id="path3387"
           style="fill:#e1e9c9;fill-opacity:1;fill-rule:nonzero;stroke:none"
           d="m 385.84837,115.73752 c -8.471,1.473 -13.001,12.5359 -13.001,12.5359 0,0 7.313,4.9532 15.78,3.4864 8.473,-1.4723 18.555,-9.8313 18.555,-9.8313 0,0 -12.863,-7.6598 -21.334,-6.191" /><path
           inkscape:connector-curvature="0"
           id="path3389"
           style="fill:#e1e9c9;fill-opacity:1;fill-rule:nonzero;stroke:none"
           d="m 372.36537,148.81952 c -4.852,-7.0898 -0.076,-18.0597 -0.076,-18.0597 0,0 8.648,1.7898 13.502,8.898 4.846,7.093 5.879,20.1477 5.879,20.1477 0,0 -14.459,-3.8821 -19.305,-10.986" /><path
           inkscape:connector-curvature="0"
           id="path3391"
           style="fill:#e1e9c9;fill-opacity:1;fill-rule:nonzero;stroke:none"
           d="m 422.11737,135.10082 c -8.588,-0.4481 -15.463,9.3328 -15.463,9.3328 0,0 6.032,6.4582 14.613,6.9058 8.588,0.4461 20.275,-5.4597 20.275,-5.4597 0,0 -10.838,-10.327 -19.425,-10.7789" /><path
           inkscape:connector-curvature="0"
           id="path3393"
           style="fill:#e1e9c9;fill-opacity:1;fill-rule:nonzero;stroke:none"
           d="m 401.61637,164.35782 c -3.152,-7.998 3.939,-17.623 3.939,-17.623 0,0 8.039,3.6707 11.187,11.6687 3.146,7.9992 1.249,20.9561 1.249,20.9561 0,0 -13.23,-7.0018 -16.375,-15.0018" /><path
           inkscape:connector-curvature="0"
           id="path3395"
           style="fill:#e1e9c9;fill-opacity:1;fill-rule:nonzero;stroke:none"
           d="m 452.53637,156.85982 c -8.467,-1.4852 -16.481,7.3957 -16.481,7.3957 0,0 5.208,7.139 13.67,8.6222 8.468,1.4821 20.782,-2.9711 20.782,-2.9711 0,0 -9.503,-11.5558 -17.971,-13.0468" /><path
           inkscape:connector-curvature="0"
           id="path3397"
           style="fill:#e1e9c9;fill-opacity:1;fill-rule:nonzero;stroke:none"
           d="m 428.63837,183.42262 c -2.154,-8.323 6.051,-17.0179 6.051,-17.0179 0,0 7.533,4.616 9.69,12.9409 2.153,8.318 -1.294,20.947 -1.294,20.947 0,0 -12.289,-8.549 -14.447,-16.87" /><path
           inkscape:connector-curvature="0"
           id="path3399"
           style="fill:#e1e9c9;fill-opacity:1;fill-rule:nonzero;stroke:none"
           d="m 479.36737,179.92562 c -8.263,-2.355 -17.154,5.637 -17.154,5.637 0,0 4.43,7.638 12.695,10 8.268,2.356 20.981,-0.789 20.981,-0.789 0,0 -8.25,-12.487 -16.522,-14.848" /><path
           inkscape:connector-curvature="0"
           id="path3401"
           style="fill:#e1e9c9;fill-opacity:1;fill-rule:nonzero;stroke:none"
           d="m 452.83637,203.85562 c -1.275,-8.497 7.79,-16.299 7.79,-16.299 0,0 7.009,5.378 8.293,13.882 1.27,8.493 -3.476,20.702 -3.476,20.702 0,0 -11.326,-9.783 -12.607,-18.285" /><path
           inkscape:connector-curvature="0"
           id="path3403"
           style="fill:#e1e9c9;fill-opacity:1;fill-rule:nonzero;stroke:none"
           d="m 500.70037,209.85962 c -7.471,-4.242 -18.001,1.426 -18.001,1.426 0,0 2.502,8.469 9.982,12.715 7.474,4.239 20.569,4.185 20.569,4.185 0,0 -5.07,-14.079 -12.55,-18.326" /><path
           inkscape:connector-curvature="0"
           id="path3405"
           style="fill:#e1e9c9;fill-opacity:1;fill-rule:nonzero;stroke:none"
           d="m 469.27237,226.85362 c 0.771,-8.564 11.413,-14.001 11.413,-14.001 0,0 5.544,6.877 4.783,15.441 -0.764,8.561 -8.258,19.299 -8.258,19.299 0,0 -8.701,-12.185 -7.938,-20.739" /><path
           inkscape:connector-curvature="0"
           id="path3407"
           style="fill:#e1e9c9;fill-opacity:1;fill-rule:nonzero;stroke:none"
           d="m 519.63237,248.39062 c -4.926,-7.035 -16.875,-6.436 -16.875,-6.436 0,0 -1.368,8.725 3.559,15.768 4.933,7.038 16.779,12.61 16.779,12.61 0,0 1.467,-14.895 -3.463,-21.942" /><path
           inkscape:connector-curvature="0"
           id="path3409"
           style="fill:#e1e9c9;fill-opacity:1;fill-rule:nonzero;stroke:none"
           d="m 483.95237,250.24862 c 4.368,-7.399 16.318,-7.745 16.318,-7.745 0,0 2.053,8.595 -2.308,16 -4.362,7.408 -15.742,13.888 -15.742,13.888 0,0 -2.628,-14.733 1.732,-22.143" /><path
           inkscape:connector-curvature="0"
           id="path3411"
           style="fill:#e1e9c9;fill-opacity:1;fill-rule:nonzero;stroke:none"
           d="m 523.27437,284.49762 c -4.076,-7.56 -16.01,-8.353 -16.01,-8.353 0,0 -2.374,8.509 1.708,16.076 4.086,7.563 15.208,14.465 15.208,14.465 0,0 3.178,-14.621 -0.906,-22.188" /><path
           inkscape:connector-curvature="0"
           id="path3413"
           style="fill:#e1e9c9;fill-opacity:1;fill-rule:nonzero;stroke:none"
           d="m 487.62737,282.21162 c 5.192,-6.854 17.101,-5.809 17.101,-5.809 0,0 1.046,8.774 -4.145,15.629 -5.196,6.849 -17.243,11.969 -17.243,11.969 0,0 -0.907,-14.943 4.287,-21.789" /><path
           inkscape:connector-curvature="0"
           id="path3415"
           style="fill:#e1e9c9;fill-opacity:1;fill-rule:nonzero;stroke:none"
           d="m 518.44737,322.25962 c -2.682,-8.163 -14.29,-11.043 -14.29,-11.043 0,0 -3.837,7.955 -1.152,16.122 2.688,8.163 12.417,16.922 12.417,16.922 0,0 5.707,-13.833 3.025,-22.001" /><path
           inkscape:connector-curvature="0"
           id="path3417"
           style="fill:#e1e9c9;fill-opacity:1;fill-rule:nonzero;stroke:none"
           d="m 483.75837,313.72162 c 6.319,-5.826 17.858,-2.697 17.858,-2.697 0,0 -0.519,8.82 -6.836,14.649 -6.319,5.824 -19.085,8.742 -19.085,8.742 0,0 1.743,-14.865 8.063,-20.694" /><path
           inkscape:connector-curvature="0"
           id="path3419"
           style="fill:#e1e9c9;fill-opacity:1;fill-rule:nonzero;stroke:none"
           d="m 507.04237,357.74662 c -0.937,-8.54 -11.701,-13.757 -11.701,-13.757 0,0 -5.401,6.994 -4.456,15.539 0.943,8.546 8.658,19.123 8.658,19.123 0,0 8.441,-12.357 7.499,-20.905" /><path
           inkscape:connector-curvature="0"
           id="path3421"
           style="fill:#e1e9c9;fill-opacity:1;fill-rule:nonzero;stroke:none"
           d="m 474.86737,342.23762 c 7.385,-4.406 18.03,1.04 18.03,1.04 0,0 -2.33,8.523 -9.714,12.924 -7.387,4.396 -20.481,4.613 -20.481,4.613 0,0 4.774,-14.185 12.165,-18.577" /><path
           inkscape:connector-curvature="0"
           id="path3423"
           style="fill:#e1e9c9;fill-opacity:1;fill-rule:nonzero;stroke:none"
           d="m 488.47337,388.88762 c -0.934,-8.54 -11.701,-13.758 -11.701,-13.758 0,0 -5.399,6.993 -4.458,15.537 0.946,8.545 8.66,19.122 8.66,19.122 0,0 8.44,-12.357 7.499,-20.901" /><path
           inkscape:connector-curvature="0"
           id="path3425"
           style="fill:#e1e9c9;fill-opacity:1;fill-rule:nonzero;stroke:none"
           d="m 456.29537,373.37462 c 7.385,-4.403 18.036,1.042 18.036,1.042 0,0 -2.332,8.522 -9.718,12.921 -7.384,4.402 -20.479,4.618 -20.479,4.618 0,0 4.777,-14.183 12.161,-18.581" /><path
           inkscape:connector-curvature="0"
           id="path3427"
           style="fill:#e1e9c9;fill-opacity:1;fill-rule:nonzero;stroke:none"
           d="m 466.23837,410.17162 c 3.418,-7.884 -3.356,-17.745 -3.356,-17.745 0,0 -8.149,3.402 -11.563,11.285 -3.418,7.891 -1.949,20.902 -1.949,20.902 0,0 13.45,-6.552 16.868,-14.442" /><path
           inkscape:connector-curvature="0"
           id="path3429"
           style="fill:#e1e9c9;fill-opacity:1;fill-rule:nonzero;stroke:none"
           d="m 291.72437,102.83552 c 8.551,0.8403 13.892,11.5403 13.892,11.5403 0,0 -6.929,5.482 -15.483,4.6398 -8.561,-0.8398 -19.228,-8.4371 -19.228,-8.4371 0,0 12.26,-8.5828 20.819,-7.743" /><path
           inkscape:connector-curvature="0"
           id="path3431"
           style="fill:#e1e9c9;fill-opacity:1;fill-rule:nonzero;stroke:none"
           d="m 307.61637,134.83482 c 4.31,-7.4372 -1.26,-18.018 -1.26,-18.018 0,0 -8.498,2.4258 -12.808,9.8648 -4.308,7.434 -4.373,20.5282 -4.373,20.5282 0,0 14.131,-4.9391 18.441,-12.375" /><path
           inkscape:connector-curvature="0"
           id="path3433"
           style="fill:#e1e9c9;fill-opacity:1;fill-rule:nonzero;stroke:none"
           d="m 264.09637,114.82662 c 8.553,0.8429 13.892,11.546 13.892,11.546 0,0 -6.931,5.4731 -15.483,4.6372 -8.562,-0.8461 -19.227,-8.4383 -19.227,-8.4383 0,0 12.258,-8.586 20.818,-7.7449" /><path
           inkscape:connector-curvature="0"
           id="path3435"
           style="fill:#e1e9c9;fill-opacity:1;fill-rule:nonzero;stroke:none"
           d="m 279.98637,146.82152 c 4.312,-7.4367 -1.261,-18.016 -1.261,-18.016 0,0 -8.491,2.425 -12.805,9.8621 -4.31,7.4379 -4.375,20.53 -4.375,20.53 0,0 14.129,-4.9371 18.441,-12.3761" /><path
           inkscape:connector-curvature="0"
           id="path3437"
           style="fill:#e1e9c9;fill-opacity:1;fill-rule:nonzero;stroke:none"
           d="m 229.35637,136.81682 c 8.527,-1.0852 16.108,8.1648 16.108,8.1648 0,0 -5.534,6.8821 -14.058,7.9641 -8.533,1.0828 -20.624,-3.9461 -20.624,-3.9461 0,0 10.045,-11.1012 18.574,-12.1828" /><path
           inkscape:connector-curvature="0"
           id="path3439"
           style="fill:#e1e9c9;fill-opacity:1;fill-rule:nonzero;stroke:none"
           d="m 251.96537,164.48362 c 2.549,-8.2129 -5.231,-17.2942 -5.231,-17.2942 0,0 -7.748,4.2582 -10.299,12.4653 -2.546,8.2121 0.304,20.9919 0.304,20.9919 0,0 12.677,-7.9599 15.226,-16.163" /><path
           inkscape:connector-curvature="0"
           id="path3441"
           style="fill:#e1e9c9;fill-opacity:1;fill-rule:nonzero;stroke:none"
           d="m 200.62747,160.76562 c 8.3319,-2.1058 16.9789,6.1551 16.9789,6.1551 0,0 -4.659,7.5027 -12.9945,9.6089 -8.3325,2.104 -20.9465,-1.4249 -20.9465,-1.4249 0,0 8.6281,-12.2321 16.9621,-14.3391" /><path
           inkscape:connector-curvature="0"
           id="path3443"
           style="fill:#e1e9c9;fill-opacity:1;fill-rule:nonzero;stroke:none"
           d="m 226.42237,185.48262 c 1.534,-8.457 -7.293,-16.5201 -7.293,-16.5201 0,0 -7.168,5.157 -8.707,13.6171 -1.53,8.455 2.843,20.8 2.843,20.8 0,0 11.618,-9.433 13.157,-17.897" /><path
           inkscape:connector-curvature="0"
           id="path3445"
           style="fill:#e1e9c9;fill-opacity:1;fill-rule:nonzero;stroke:none"
           d="m 175.57587,185.74562 c 8.0617,-2.959 17.5231,4.355 17.5231,4.355 0,0 -3.8508,7.948 -11.9207,10.914 -8.0699,2.96 -20.9821,0.759 -20.9821,0.759 0,0 7.3063,-13.058 15.3797,-16.028" /><path
           inkscape:connector-curvature="0"
           id="path3447"
           style="fill:#e1e9c9;fill-opacity:1;fill-rule:nonzero;stroke:none"
           d="m 203.79897,207.64962 c 0.6449,-8.569 -8.9723,-15.675 -8.9723,-15.675 0,0 -6.5926,5.879 -7.2394,14.451 -0.6454,8.568 4.9879,20.39 4.9879,20.39 0,0 10.5734,-10.591 11.2238,-19.166" /><path
           inkscape:connector-curvature="0"
           id="path3449"
           style="fill:#e1e9c9;fill-opacity:1;fill-rule:nonzero;stroke:none"
           d="m 156.51187,217.17562 c 7.1371,-4.782 18.059,0.094 18.059,0.094 0,0 -1.8711,8.629 -9.0149,13.414 -7.1434,4.78 -20.2074,5.697 -20.2074,5.697 0,0 4.0156,-14.421 11.1633,-19.205" /><path
           inkscape:connector-curvature="0"
           id="path3451"
           style="fill:#e1e9c9;fill-opacity:1;fill-rule:nonzero;stroke:none"
           d="m 189.10987,231.79662 c -1.3988,-8.481 -12.4191,-13.119 -12.4191,-13.119 0,0 -5.0199,7.269 -3.6258,15.756 1.3949,8.479 9.659,18.639 9.659,18.639 0,0 7.7773,-12.796 6.3859,-21.276" /><path
           inkscape:connector-curvature="0"
           id="path3453"
           style="fill:#e1e9c9;fill-opacity:1;fill-rule:nonzero;stroke:none"
           d="m 140.47867,257.00162 c 4.3945,-7.379 16.3519,-7.661 16.3519,-7.661 0,0 2.0137,8.599 -2.3859,15.982 -4.3945,7.386 -15.8016,13.816 -15.8016,13.816 0,0 -2.5621,-14.749 1.8356,-22.137" /><path
           inkscape:connector-curvature="0"
           id="path3455"
           style="fill:#e1e9c9;fill-opacity:1;fill-rule:nonzero;stroke:none"
           d="m 176.19587,256.22062 c -4.9016,-7.065 -16.8418,-6.52 -16.8418,-6.52 0,0 -1.4172,8.719 3.4812,15.785 4.8984,7.062 16.7262,12.683 16.7262,12.683 0,0 1.5304,-14.885 -3.3656,-21.948" /><path
           inkscape:connector-curvature="0"
           id="path3457"
           style="fill:#e1e9c9;fill-opacity:1;fill-rule:nonzero;stroke:none"
           d="m 139.51497,293.27762 c 3.507,-7.84 15.3488,-9.511 15.3488,-9.511 0,0 2.9977,8.312 -0.5152,16.157 -3.5156,7.846 -14.0984,15.55 -14.0984,15.55 0,0 -4.2489,-14.349 -0.7352,-22.196" /><path
           inkscape:connector-curvature="0"
           id="path3459"
           style="fill:#e1e9c9;fill-opacity:1;fill-rule:nonzero;stroke:none"
           d="m 174.89587,288.36762 c -5.686,-6.454 -17.4887,-4.528 -17.4887,-4.528 0,0 -0.3903,8.822 5.2926,15.278 5.6847,6.442 18.0847,10.658 18.0847,10.658 0,0 -0.1992,-14.966 -5.8886,-21.408" /><path
           inkscape:connector-curvature="0"
           id="path3461"
           style="fill:#e1e9c9;fill-opacity:1;fill-rule:nonzero;stroke:none"
           d="m 147.11967,330.58262 c 2.0691,-8.337 13.434,-12.069 13.434,-12.069 0,0 4.4183,7.65 2.3394,15.989 -2.075,8.348 -11.1289,17.797 -11.1289,17.797 0,0 -6.7199,-13.38 -4.6445,-21.717" /><path
           inkscape:connector-curvature="0"
           id="path3463"
           style="fill:#e1e9c9;fill-opacity:1;fill-rule:nonzero;stroke:none"
           d="m 181.08297,319.50462 c -6.736,-5.347 -18.0094,-1.374 -18.0094,-1.374 0,0 1.1695,8.757 7.9023,14.103 6.7289,5.347 19.6789,7.304 19.6789,7.304 0,0 -2.8406,-14.692 -9.5718,-20.033" /><path
           inkscape:connector-curvature="0"
           id="path3465"
           style="fill:#e1e9c9;fill-opacity:1;fill-rule:nonzero;stroke:none"
           d="m 161.11417,365.12462 c 0.2996,-8.583 10.6547,-14.578 10.6547,-14.578 0,0 5.898,6.576 5.5891,15.164 -0.3086,8.593 -7.22,19.707 -7.22,19.707 0,0 -9.3324,-11.704 -9.0238,-20.293" /><path
           inkscape:connector-curvature="0"
           id="path3467"
           style="fill:#e1e9c9;fill-opacity:1;fill-rule:nonzero;stroke:none"
           d="m 192.05837,347.28062 c -7.6891,-3.844 -17.9028,2.374 -17.9028,2.374 0,0 2.9512,8.322 10.6395,12.176 7.6883,3.837 20.764,3.077 20.764,3.077 0,0 -5.8105,-13.791 -13.5007,-17.627" /><path
           inkscape:connector-curvature="0"
           id="path3469"
           style="fill:#e1e9c9;fill-opacity:1;fill-rule:nonzero;stroke:none"
           d="m 181.93057,394.80762 c 0.3031,-8.585 10.6563,-14.578 10.6563,-14.578 0,0 5.898,6.576 5.5922,15.161 -0.311,8.595 -7.2235,19.716 -7.2235,19.716 0,0 -9.3332,-11.705 -9.025,-20.299" /><path
           inkscape:connector-curvature="0"
           id="path3471"
           style="fill:#e1e9c9;fill-opacity:1;fill-rule:nonzero;stroke:none"
           d="m 212.87737,376.96362 c -7.6925,-3.844 -17.9038,2.374 -17.9038,2.374 0,0 2.9519,8.326 10.6441,12.171 7.6877,3.835 20.7577,3.084 20.7577,3.084 0,0 -5.808,-13.793 -13.498,-17.629" /><path
           inkscape:connector-curvature="0"
           id="path3473"
           style="fill:#e1e9c9;fill-opacity:1;fill-rule:nonzero;stroke:none"
           d="m 205.68097,414.39162 c -3.9867,-7.613 2.0344,-17.939 2.0344,-17.939 0,0 8.381,2.785 12.372,10.402 3.989,7.612 3.486,20.696 3.486,20.696 0,0 -13.903,-5.538 -17.8924,-13.159" /><path
           inkscape:connector-curvature="0"
           id="path3475"
           style="fill:#45291d;fill-opacity:1;fill-rule:nonzero;stroke:none"
           d="m 442.21737,189.65462 c 0,0 -19.875,-11.584 -49.68,-12.72 -28.559,-1.0881 -49.66,12.797 -49.66,12.797 l -15.99,197.206 c 0,0 34.763,-10.468 64.563,-12.811 29.796,-2.341 68.304,12.707 68.304,12.707 l -17.537,-197.179" /><path
           inkscape:connector-curvature="0"
           id="path3477"
           style="fill:#d5ccb0;fill-opacity:1;fill-rule:nonzero;stroke:none"
           d="m 461.27637,371.60562 c -0.005,-8.661 -29.416,-19.279 -67.917,-19.249 -38.498,0.027 -68.494,11.417 -69.394,18.633 -0.447,3.585 -2.1,17.139 -2.1,17.139 0,0 45.004,6.458 71.529,6.441 25.972,-0.021 67.896,-6.548 67.896,-6.548 0,0 -0.009,-12.625 -0.014,-16.416" /><path
           inkscape:connector-curvature="0"
           id="path3479"
           style="fill:#fde5c5;fill-opacity:1;fill-rule:nonzero;stroke:none"
           d="m 461.29037,388.98962 c -0.007,-9.925 -31.223,-17.944 -69.723,-17.915 -38.503,0.031 -69.709,8.097 -69.7,18.021 0.007,9.922 31.225,17.94 69.725,17.911 38.501,-0.03 69.705,-8.096 69.698,-18.017" /><path
           inkscape:connector-curvature="0"
           id="path3481"
           style="fill:#d5ccb0;fill-opacity:1;fill-rule:nonzero;stroke:none"
           d="m 452.99137,392.78062 c -0.006,-7.686 -26.107,-17.113 -60.281,-17.086 -34.171,0.026 -60.797,10.133 -61.597,16.541 -0.397,3.182 -1.862,15.211 -1.862,15.211 0,0 39.942,5.734 63.487,5.715 23.054,-0.018 60.262,-5.811 60.262,-5.811 0,0 -0.007,-11.204 -0.009,-14.57" /><path
           inkscape:connector-curvature="0"
           id="path3483"
           style="fill:#fde5c5;fill-opacity:1;fill-rule:nonzero;stroke:none"
           d="m 453.00337,408.20962 c -0.008,-8.805 -27.716,-15.926 -61.887,-15.898 -34.175,0.026 -61.871,7.188 -61.865,15.994 0.007,8.807 27.715,15.926 61.89,15.9 34.173,-0.027 61.87,-7.189 61.862,-15.996" /><path
           inkscape:connector-curvature="0"
           id="path3485"
           style="fill:#d5ccb0;fill-opacity:1;fill-rule:nonzero;stroke:none"
           d="m 443.47137,408.21762 c -0.007,-7.45 -23.445,-13.47 -52.353,-13.448 -28.908,0.022 -52.34,6.079 -52.333,13.528 0.006,7.452 23.444,13.472 52.354,13.448 28.906,-0.022 52.337,-6.078 52.332,-13.528" /><path
           inkscape:connector-curvature="0"
           id="path3487"
           style="fill:#fde5c5;fill-opacity:1;fill-rule:nonzero;stroke:none"
           d="m 425.38569,277.11854 c -0.019,-25.945 -12.823,-46.977 -28.598,-46.963 -15.774,0.012 -28.546,21.059 -28.526,47.008 0.022,25.952 12.823,46.976 28.598,46.962 15.774,-0.01 28.544,-21.055 28.526,-47.007" /><path
           inkscape:connector-curvature="0"
           id="path3489"
           style="fill:#351f17;fill-opacity:1;fill-rule:nonzero;stroke:none"
           d="m 384.02437,302.36362 c -11.637,-6.084 -14.137,-22.125 -12.343,-33.703 0.76,-4.933 10.04,-23.59 22.628,-20.924 -2.245,4.928 -8.974,5 -10.4,10.813 -1.238,5.051 -0.699,12.109 0.98,17.348 3.116,9.744 14.841,23.16 -1.467,26.588 l 0.602,-0.122" /><path
           inkscape:connector-curvature="0"
           id="path3491"
           style="fill:#351f17;fill-opacity:1;fill-rule:nonzero;stroke:none"
           d="m 388.67737,305.93662 c 22.137,6.056 27.364,-16.696 24.742,-33.748 -1.213,-7.909 -4.175,-17.635 -13.104,-19.901 -11.48,-2.91 -15.183,6.576 -13.513,16.111 1.457,8.333 6.426,14.028 9.9,21.102 5.038,10.268 -1.917,11.33 -9.354,15.555 l 1.329,0.881" /><path
           inkscape:connector-curvature="0"
           id="path3493"
           style="fill:#45291d;fill-opacity:1;fill-rule:nonzero;stroke:none"
           d="m 429.94637,395.31862 c 0,0 -18.916,0.263 -13.507,7.381 6.763,8.903 28.864,-2.783 28.864,-2.783 l 1.83,-13.822 c 0,0 -6.144,-3.988 -14.434,-5.825 -1.225,5.529 -2.753,15.049 -2.753,15.049" /><path
           inkscape:connector-curvature="0"
           id="path3495"
           style="fill:#b4ab94;fill-opacity:1;fill-rule:nonzero;stroke:none"
           d="m 439.44637,403.03062 -0.295,-14.78 7.982,-2.156 -1.83,13.822 -5.857,3.114" /><path
           inkscape:connector-curvature="0"
           id="path3497"
           style="fill:#98917d;fill-opacity:1;fill-rule:nonzero;stroke:none"
           d="m 439.15137,388.25062 c 0,0 -2.296,6.756 -5.828,8.758 -3.529,1.996 -15.351,0.471 -15.351,0.471 0,0 -3.604,0.291 -3.289,3.053 0.393,3.522 5.599,5.851 11.126,5.693 4.322,-0.125 13.637,-3.195 13.637,-3.195 l -0.295,-14.78" /><path
           inkscape:connector-curvature="0"
           id="path3499"
           style="fill:#45291d;fill-opacity:1;fill-rule:nonzero;stroke:none"
           d="m 526.02037,199.08562 -56.65,0 0,-54.1962 56.65,0 -19.995,28.2762 19.995,25.92" /><path
           inkscape:connector-curvature="0"
           id="path3501"
           style="fill:#45291d;fill-opacity:1;fill-rule:nonzero;stroke:none"
           d="m 133.13137,199.08562 56.6496,0 0,-54.1962 -56.6496,0 19.9938,28.2762 -19.9938,25.92" /><path
           inkscape:connector-curvature="0"
           id="path3503"
           style="fill:#24140c;fill-opacity:1;fill-rule:nonzero;stroke:none"
           d="m 485.79937,193.56062 c 0,0 -95.688,-39.4071 -158.383,-39.4071 -62.692,0 -157.2834,39.4071 -157.2834,39.4071 l 0,-52.9622 c 0,0 62.6974,-39.4078 156.1844,-39.4078 93.488,0 159.482,39.4078 159.482,39.4078 l 0,52.9622" /><path
           inkscape:connector-curvature="0"
           id="path3505"
           style="fill:#45291d;fill-opacity:1;fill-rule:nonzero;stroke:none"
           d="m 482.91237,189.22962 c 0,0 -94.088,-39.412 -155.727,-39.412 -61.641,0 -154.6474,39.412 -154.6474,39.412 l 0,-52.9609 c 0,0 61.6464,-39.408197 153.5644,-39.408197 91.918,0 156.81,39.408197 156.81,39.408197 l 0,52.9609" /><path
           inkscape:connector-curvature="0"
           id="path3525"
           style="fill:#e1e9c9;fill-opacity:1;fill-rule:nonzero;stroke:none"
           d="m 193.35207,163.36372 2.6426,-5.345 5.8937,-0.855 -4.2644,-4.1641 1.0094,-5.8781 -5.2813,2.7769 -5.2668,-2.7769 1.0016,5.8781 -4.2672,4.1641 5.9012,0.855 2.6312,5.345" /><path
           inkscape:connector-curvature="0"
           id="path3527"
           style="fill:#e1e9c9;fill-opacity:1;fill-rule:nonzero;stroke:none"
           d="m 462.21537,161.31052 2.641,-5.3437 5.896,-0.857 -4.267,-4.1633 1.011,-5.8778 -5.281,2.7758 -5.268,-2.7758 0.999,5.8778 -4.266,4.1633 5.903,0.857 2.632,5.3437" /><path
           inkscape:connector-curvature="0"
           id="path3529"
           style="fill:#f79745;fill-opacity:1;fill-rule:nonzero;stroke:none"
           d="m 382.40437,219.99662 c 4.416,-7.813 3.092,-28.511 -11.812,-32.972 -14.906,-4.46 -53.786,-16.7691 -91.399,-12.418 -36.387,4.206 -96.171,27.834 -100.1753,45.07 -4.0012,17.24 6.1481,29.722 22.2477,39.174 16.0996,9.453 59.5006,32.133 103.2956,19.039 37.22,-11.128 73.431,-50.08 77.843,-57.893" /><path
           inkscape:connector-curvature="0"
           id="path3531"
           style="fill:#bf935b;fill-opacity:1;fill-rule:nonzero;stroke:none"
           d="m 382.40437,219.99662 -0.435,-0.246 c 1.336,-2.356 2.157,-6.054 2.154,-10.115 10e-4,-4.39 -0.949,-9.207 -3.135,-13.27 -2.189,-4.067 -5.586,-7.376 -10.539,-8.862 -12.725,-3.809 -42.873,-13.3149 -74.742,-13.3142 -5.462,0 -10.974,0.2793 -16.456,0.9133 -18.122,2.0929 -42.142,9.0419 -62.092,17.6119 -9.9753,4.283 -18.9362,8.974 -25.6303,13.649 -3.3469,2.337 -6.1258,4.671 -8.1789,6.936 -2.0551,2.264 -3.375,4.458 -3.8454,6.49 -0.5828,2.512 -0.8601,4.916 -0.8601,7.22 0.002,6.647 2.3008,12.473 6.3105,17.667 4.0094,5.192 9.7387,9.737 16.5633,13.743 12.6129,7.409 42.0389,22.947 75.1759,22.942 9.051,0 18.379,-1.157 27.723,-3.951 18.501,-5.529 36.821,-18.012 51.045,-30.092 7.112,-6.039 13.203,-11.976 17.786,-16.886 4.58,-4.903 7.667,-8.809 8.72,-10.682 l 0.436,0.246 0.435,0.246 c -1.152,2.034 -4.247,5.927 -8.86,10.872 -13.835,14.811 -41.201,38.851 -69.275,47.254 -9.447,2.825 -18.874,3.993 -28.01,3.993 -33.45,-0.005 -63.003,-15.639 -75.6821,-23.08 -6.8969,-4.05 -12.7282,-8.661 -16.8485,-13.993 -4.1203,-5.33 -6.5211,-11.396 -6.5191,-18.279 0,-2.384 0.2875,-4.865 0.8863,-7.446 0.5309,-2.277 1.9551,-4.592 4.0781,-6.936 3.7188,-4.098 9.6047,-8.297 16.8504,-12.379 21.7349,-12.234 55.7049,-23.364 79.6769,-26.1388 5.525,-0.6391 11.075,-0.9204 16.571,-0.9204 32.058,10e-4 62.303,9.5502 75.029,13.3562 5.236,1.565 8.854,5.1 11.133,9.346 2.282,4.249 3.253,9.212 3.254,13.744 -0.003,4.196 -0.826,8.02 -2.284,10.607 l -0.435,-0.246" /><path
           inkscape:connector-curvature="0"
           id="path3533"
           style="fill:#f9b265;fill-opacity:1;fill-rule:nonzero;stroke:none"
           d="m 323.18937,269.06862 c 0,0 -19.436,-7.045 -21.738,-14.92 -2.302,-7.875 -6.642,-22.469 -13.309,-26.029 -6.665,-3.557 -28.452,5.278 -31.459,12.018 -3.008,6.741 6.527,20.213 12.299,27.295 5.771,7.082 20.603,12.47 20.603,12.47 0,0 4.911,-0.396 13.636,-2.474 8.726,-2.075 19.968,-8.36 19.968,-8.36" /><path
           inkscape:connector-curvature="0"
           id="path3535"
           style="fill:#bf935b;fill-opacity:1;fill-rule:nonzero;stroke:none"
           d="m 323.18937,269.06862 -0.17,0.471 c -0.013,-0.006 -4.888,-1.772 -10.071,-4.536 -2.592,-1.384 -5.261,-3.015 -7.447,-4.815 -2.182,-1.803 -3.9,-3.768 -4.53,-5.9 -1.149,-3.935 -2.806,-9.534 -4.996,-14.574 -1.094,-2.519 -2.322,-4.897 -3.676,-6.849 -1.352,-1.953 -2.831,-3.473 -4.393,-4.305 -0.941,-0.505 -2.3,-0.758 -3.928,-0.756 -4.335,-0.005 -10.496,1.764 -15.834,4.242 -2.671,1.238 -5.142,2.652 -7.085,4.094 -1.946,1.438 -3.354,2.919 -3.92,4.201 -0.36,0.806 -0.529,1.733 -0.529,2.764 -0.01,3.42 1.91,7.926 4.486,12.301 2.571,4.379 5.777,8.647 8.273,11.71 2.792,3.435 7.903,6.547 12.304,8.76 2.201,1.11 4.225,2 5.697,2.612 0.736,0.306 1.334,0.543 1.747,0.703 0.413,0.16 0.639,0.241 0.639,0.242 l -0.171,0.469 -0.04,-0.498 c 0,0 0.071,-0.006 0.22,-0.02 1.038,-0.102 5.729,-0.63 13.34,-2.443 4.302,-1.022 9.276,-3.101 13.16,-4.924 1.943,-0.911 3.615,-1.759 4.8,-2.377 0.593,-0.31 1.064,-0.562 1.386,-0.737 0.322,-0.175 0.494,-0.271 0.494,-0.271 l 0.244,0.436 -0.17,0.471 0.17,-0.471 0.244,0.437 c -0.021,0.008 -11.259,6.303 -20.097,8.409 -8.752,2.085 -13.687,2.485 -13.71,2.487 l -0.109,0.009 -0.102,-0.038 c -0.012,-0.004 -3.735,-1.356 -8.192,-3.603 -4.458,-2.251 -9.649,-5.374 -12.629,-9.021 -2.519,-3.091 -5.749,-7.389 -8.36,-11.836 -2.607,-4.452 -4.615,-9.032 -4.624,-12.807 0,-1.139 0.187,-2.211 0.616,-3.172 0.701,-1.556 2.221,-3.096 4.237,-4.597 3.026,-2.243 7.188,-4.364 11.452,-5.937 4.265,-1.57 8.62,-2.593 12.063,-2.595 1.726,0.002 3.232,0.254 4.399,0.874 1.772,0.949 3.336,2.588 4.744,4.618 4.213,6.088 7.077,15.796 8.81,21.711 0.521,1.806 2.096,3.676 4.206,5.409 3.16,2.605 7.476,4.912 10.993,6.555 1.759,0.822 3.319,1.48 4.438,1.932 0.559,0.226 1.008,0.4 1.317,0.518 0.309,0.117 0.474,0.177 0.475,0.177 l 1.028,0.373 -0.955,0.534 -0.244,-0.437" /><path
           inkscape:connector-curvature="0"
           id="path3537"
           style="fill:#dd873d;fill-opacity:1;fill-rule:nonzero;stroke:none"
           d="m 299.99437,278.16262 c 0,0 -16.25,-2.794 -24.068,-10.29 -12.166,-11.67 -17.512,-18.752 -18.307,-29.226 -5.703,6.238 5.376,22.091 8.492,26.153 10.073,13.124 23.474,15.103 23.474,15.103" /><path
           inkscape:connector-curvature="0"
           id="path3539"
           style="fill:#bf935b;fill-opacity:1;fill-rule:nonzero;stroke:none"
           d="m 299.90937,278.65562 c -0.015,-0.003 -4.097,-0.705 -9.172,-2.351 -5.075,-1.651 -11.144,-4.23 -15.157,-8.071 -6.093,-5.845 -10.496,-10.553 -13.491,-15.149 -2.995,-4.594 -4.568,-9.087 -4.968,-14.401 l 0.498,-0.037 0.369,0.337 c -1.031,1.129 -1.473,2.61 -1.475,4.365 -0.008,3.525 1.853,8.038 4.051,12.034 2.194,4 4.709,7.503 5.944,9.113 4.978,6.485 10.775,10.214 15.328,12.324 2.276,1.054 4.24,1.703 5.631,2.087 0.696,0.192 1.248,0.318 1.624,0.396 0.188,0.039 0.332,0.066 0.428,0.083 0.096,0.016 0.139,0.023 0.14,0.023 l -0.147,0.989 c -0.062,-0.011 -13.599,-2.014 -23.797,-15.294 -1.261,-1.643 -3.796,-5.174 -6.027,-9.24 -2.227,-4.07 -4.167,-8.656 -4.175,-12.515 -0.002,-1.917 0.496,-3.684 1.737,-5.04 l 0.78,-0.853 0.088,1.153 c 0.394,5.161 1.891,9.446 4.809,13.93 2.918,4.481 7.271,9.148 13.345,14.973 3.804,3.655 9.769,6.221 14.774,7.842 2.502,0.812 4.764,1.392 6.399,1.768 0.817,0.188 1.477,0.326 1.932,0.416 0.455,0.09 0.701,0.132 0.701,0.132 l -0.169,0.986" /><path
           inkscape:connector-curvature="0"
           id="path3541"
           style="fill:#f9b265;fill-opacity:1;fill-rule:nonzero;stroke:none"
           d="m 238.92137,274.32462 c -5.552,-3.365 -10.049,-6.254 -13.58,-12.154 -1.396,-2.327 -2.435,-5.097 -3.167,-7.629 -0.867,-2.963 -1.017,-6.641 -2.508,-9.373 -3.042,-5.572 -13.4647,-6.608 -15.9393,-0.045 -1.1598,3.082 -1.1703,6.788 -0.1676,9.854 0.9246,2.827 2.5813,4.521 4.5429,6.496 0,0 6.429,3.095 13.358,6.235 6.937,3.142 17.461,6.616 17.461,6.616" /><path
           inkscape:connector-curvature="0"
           id="path3543"
           style="fill:#bf935b;fill-opacity:1;fill-rule:nonzero;stroke:none"
           d="m 238.92137,274.32462 -0.259,0.428 c -5.551,-3.363 -10.158,-6.318 -13.75,-12.325 -1.428,-2.383 -2.478,-5.187 -3.218,-7.747 -0.881,-3.049 -1.047,-6.694 -2.467,-9.272 -1.46,-2.701 -4.904,-4.328 -8.181,-4.322 -1.496,0 -2.945,0.335 -4.1443,1.026 -1.1996,0.693 -2.1555,1.729 -2.7074,3.187 -0.5797,1.541 -0.8641,3.258 -0.8637,4.967 -4e-4,1.574 0.2406,3.141 0.7035,4.555 0.8875,2.707 2.4563,4.32 4.4229,6.299 l -0.355,0.353 0.217,-0.451 c 0.001,10e-4 0.401,0.193 1.111,0.532 2.131,1.017 7.044,3.346 12.236,5.699 3.446,1.56 7.804,3.212 11.295,4.471 1.746,0.629 3.276,1.161 4.369,1.535 1.093,0.374 1.746,0.59 1.748,0.591 l -0.157,0.474 -0.259,0.428 0.259,-0.428 -0.157,0.475 c -0.008,-0.003 -10.533,-3.476 -17.51,-6.635 -6.936,-3.143 -13.367,-6.24 -13.369,-6.241 l -0.077,-0.037 -0.061,-0.061 c -1.957,-1.969 -3.7008,-3.746 -4.6633,-6.693 -0.4984,-1.524 -0.7531,-3.19 -0.7535,-4.866 4e-4,-1.82 0.3008,-3.65 0.9285,-5.319 0.6305,-1.678 1.7645,-2.91 3.1442,-3.702 1.3801,-0.794 3.0001,-1.159 4.6431,-1.159 3.585,0.006 7.343,1.725 9.059,4.843 1.562,2.886 1.697,6.596 2.549,9.472 0.723,2.505 1.753,5.241 3.116,7.512 3.469,5.793 7.857,8.616 13.41,11.984 l 3.771,2.286 -4.187,-1.384 0.157,-0.475" /><path
           inkscape:connector-curvature="0"
           id="path3545"
           style="fill:#dd873d;fill-opacity:1;fill-rule:nonzero;stroke:none"
           d="m 206.88447,260.71662 c -2.589,-2.751 -4.3562,-6.761 -4.2937,-9.727 0.0898,-4.137 1.0808,-8.964 5.7196,-10.419 -2.2142,3.56 -3.2497,8.075 -2.0446,12.25 1.2166,4.212 3.8986,7.161 6.0106,10.664" /><path
           inkscape:connector-curvature="0"
           id="path3547"
           style="fill:#bf935b;fill-opacity:1;fill-rule:nonzero;stroke:none"
           d="m 206.52047,261.05962 c -2.6243,-2.803 -4.4196,-6.777 -4.4317,-9.916 l 0.002,-0.166 c 0.0472,-2.103 0.3168,-4.402 1.1965,-6.405 0.8734,-2 2.4054,-3.71 4.8731,-4.479 l 1.287,-0.403 -0.712,1.145 c -1.5317,2.46 -2.4798,5.391 -2.479,8.316 0,1.187 0.1555,2.374 0.4895,3.531 1.1735,4.078 3.8055,6.986 5.9595,10.544 l -0.857,0.517 c -2.072,-3.45 -4.8018,-6.439 -6.0631,-10.784 -0.3621,-1.253 -0.5289,-2.534 -0.5289,-3.808 0.001,-3.141 1.0102,-6.24 2.63,-8.845 l 0.424,0.264 0.15,0.478 c -2.1712,0.686 -3.4536,2.116 -4.2579,3.927 -0.7981,1.809 -1.0691,3.992 -1.1117,6.025 l -0.002,0.143 c -0.0117,2.76 1.6946,6.625 4.1602,9.23 l -0.7285,0.686" /><path
           inkscape:connector-curvature="0"
           id="path3549"
           style="fill:#f9b265;fill-opacity:1;fill-rule:nonzero;stroke:none"
           d="m 359.03237,243.74962 c -3.201,1.291 -9.643,-4.784 -11.961,-6.878 -3.189,-2.881 -5.678,-6.109 -7.41,-9.957 -1.767,-3.921 -2.746,-8.723 -5.224,-12.269 -2.893,-4.137 -9.269,-5.523 -13.652,-3.161 -9.407,5.068 -12.953,16.576 -9.477,26.682 1.939,5.633 5.454,11.228 9.698,15.385 3.808,3.73 8.372,5.414 12.295,8.593 0.824,0.67 0.9,0.267 0.476,0.623 0,0 6.229,-2.417 13.227,-7.994 6.999,-5.576 12.028,-11.024 12.028,-11.024" /><path
           inkscape:connector-curvature="0"
           id="path3551"
           style="fill:#bf935b;fill-opacity:1;fill-rule:nonzero;stroke:none"
           d="m 359.03237,243.74962 0.187,0.464 c -0.371,0.15 -0.768,0.215 -1.175,0.214 -0.976,-0.003 -2.012,-0.357 -3.076,-0.888 -3.175,-1.597 -6.656,-4.877 -8.232,-6.297 -3.231,-2.918 -5.769,-6.206 -7.531,-10.123 -1.792,-3.995 -2.777,-8.767 -5.178,-12.188 -1.819,-2.612 -5.18,-4.1 -8.455,-4.096 -1.609,0 -3.189,0.356 -4.55,1.09 -6.849,3.689 -10.52,10.886 -10.523,18.435 0,2.552 0.421,5.142 1.282,7.643 1.91,5.554 5.391,11.095 9.575,15.191 3.708,3.645 8.247,5.322 12.26,8.561 0.227,0.184 0.372,0.265 0.453,0.304 l 0.094,0.039 0.08,0.033 0.122,0.084 c 0.056,0.047 0.165,0.183 0.165,0.374 0,0.114 -0.04,0.209 -0.075,0.265 -0.07,0.106 -0.115,0.128 -0.141,0.151 l -0.074,0.046 -0.142,0.099 -0.321,-0.383 -0.181,-0.466 c 0,-0.001 0.089,-0.035 0.269,-0.11 1.259,-0.527 6.755,-2.969 12.827,-7.809 3.484,-2.775 6.48,-5.521 8.604,-7.571 1.061,-1.026 1.905,-1.877 2.482,-2.472 0.289,-0.297 0.511,-0.53 0.661,-0.688 0.15,-0.159 0.226,-0.241 0.226,-0.241 l 0.367,0.339 0.187,0.464 -0.187,-0.464 0.368,0.339 c -0.011,0.012 -5.053,5.474 -12.085,11.077 -7.056,5.621 -13.326,8.055 -13.357,8.068 l -2.829,1.097 2.327,-1.947 c 0.104,-0.088 0.196,-0.147 0.255,-0.181 l 0.034,-0.02 0.008,-0.005 0.197,0.331 -0.247,-0.294 0.05,-0.037 0.197,0.331 -0.247,-0.294 0.309,0.367 -0.396,-0.271 0.087,-0.096 0.309,0.367 -0.396,-0.271 0.407,0.279 -0.493,0 c 0,-0.128 0.049,-0.226 0.086,-0.279 l 0.407,0.279 -0.493,0 0.493,0 -0.333,0.364 c -0.053,-0.044 -0.16,-0.177 -0.16,-0.364 l 0.493,0 -0.333,0.364 0.295,-0.323 -0.165,0.407 c -0.006,-0.008 -0.022,0.004 -0.13,-0.084 l 0.295,-0.323 -0.165,0.407 c 0,0 -0.129,-0.045 -0.27,-0.121 -0.148,-0.078 -0.335,-0.198 -0.565,-0.384 -3.831,-3.118 -8.422,-4.808 -12.329,-8.624 -4.304,-4.218 -7.854,-9.868 -9.821,-15.579 -0.897,-2.608 -1.336,-5.307 -1.336,-7.969 -0.002,-7.865 3.84,-15.432 11.049,-19.316 1.527,-0.822 3.269,-1.209 5.024,-1.209 3.566,0.003 7.216,1.589 9.275,4.523 2.555,3.673 3.527,8.505 5.269,12.351 1.702,3.779 4.143,6.947 7.29,9.791 1.053,0.952 2.935,2.703 4.964,4.209 1.012,0.752 2.061,1.442 3.046,1.936 0.985,0.495 1.906,0.786 2.628,0.782 0.302,0 0.567,-0.047 0.801,-0.142 l 2.066,-0.833 -1.511,1.636 -0.368,-0.339" /><path
           inkscape:connector-curvature="0"
           id="path3553"
           style="fill:#f9b265;fill-opacity:1;fill-rule:nonzero;stroke:none"
           d="m 267.26937,280.15462 c -3.274,-0.648 -5.896,-5.15 -8.242,-7.413 -3.048,-2.936 -6.146,-5.66 -8.651,-9.161 -4.66,-6.515 -3.35,-16.9 -11.533,-20.456 -1.227,-0.532 -3.468,-1.414 -4.599,-0.623 -1.196,0.839 -1.234,3.307 -1.413,4.649 -0.539,4.064 -0.205,7.894 0.98,11.852 1.002,3.359 2.603,6.796 4.24,9.871 1.214,2.28 3.461,4.318 4.213,6.828 0.2,0.091 0.38,0.048 0.58,0.116" /><path
           inkscape:connector-curvature="0"
           id="path3555"
           style="fill:#bf935b;fill-opacity:1;fill-rule:nonzero;stroke:none"
           d="m 267.17237,280.64562 c -1.833,-0.372 -3.358,-1.745 -4.742,-3.255 -1.379,-1.515 -2.625,-3.206 -3.75,-4.289 -3.036,-2.926 -6.162,-5.67 -8.711,-9.23 -2.411,-3.383 -3.243,-7.659 -4.513,-11.472 -0.631,-1.907 -1.366,-3.696 -2.424,-5.208 -1.059,-1.513 -2.43,-2.756 -4.388,-3.608 -0.856,-0.377 -2.226,-0.905 -3.208,-0.897 -0.392,-0.001 -0.7,0.079 -0.905,0.225 -0.41,0.271 -0.719,0.977 -0.885,1.826 -0.173,0.843 -0.227,1.777 -0.32,2.48 -0.164,1.238 -0.246,2.452 -0.246,3.655 0,2.678 0.404,5.297 1.21,7.987 0.986,3.31 2.574,6.721 4.202,9.779 0.575,1.083 1.426,2.149 2.243,3.269 0.815,1.121 1.601,2.3 2.008,3.651 l -0.479,0.143 0.206,-0.455 0.132,0.024 c 0.084,0.009 0.228,0.015 0.404,0.074 l -0.323,0.947 c -0.025,-0.009 -0.07,-0.016 -0.177,-0.025 -0.103,-0.011 -0.268,-0.027 -0.448,-0.109 l -0.208,-0.094 -0.065,-0.218 c -0.346,-1.159 -1.059,-2.254 -1.858,-3.349 -0.798,-1.097 -1.679,-2.19 -2.318,-3.388 -1.646,-3.093 -3.26,-6.554 -4.277,-9.963 -0.831,-2.772 -1.252,-5.494 -1.252,-8.273 0,-1.248 0.085,-2.507 0.255,-3.787 0.087,-0.641 0.141,-1.612 0.331,-2.548 0.198,-0.931 0.506,-1.878 1.291,-2.445 0.441,-0.307 0.961,-0.406 1.479,-0.406 1.292,0.007 2.709,0.596 3.606,0.979 2.134,0.926 3.668,2.315 4.81,3.953 1.715,2.459 2.579,5.457 3.464,8.421 0.881,2.967 1.782,5.9 3.466,8.25 2.462,3.442 5.532,6.146 8.592,9.092 1.221,1.181 2.459,2.872 3.795,4.335 1.332,1.469 2.756,2.672 4.197,2.948 l -0.194,0.981" /><path
           inkscape:connector-curvature="0"
           id="path3557"
           style="fill:#dd873d;fill-opacity:1;fill-rule:nonzero;stroke:none"
           d="m 242.22437,275.73262 c -3.128,-4.941 -7.536,-10.054 -8.734,-15.885 -0.606,-2.959 -1.077,-6.722 -0.841,-9.781 0.129,-1.648 -0.018,-3.601 0.49,-5.185 0.187,-0.588 1.903,-3.578 2.928,-2.998 l 0.164,0.081 c -4.829,11.456 5.847,24.579 10.356,34.146" /><path
           inkscape:connector-curvature="0"
           id="path3559"
           style="fill:#bf935b;fill-opacity:1;fill-rule:nonzero;stroke:none"
           d="m 241.80137,276.00062 c -3.091,-4.902 -7.556,-10.043 -8.801,-16.053 -0.502,-2.453 -0.913,-5.444 -0.913,-8.17 0,-0.598 0.02,-1.184 0.063,-1.749 0.132,-1.594 -0.031,-3.577 0.513,-5.3 0.067,-0.205 0.194,-0.463 0.38,-0.798 0.277,-0.493 0.671,-1.105 1.119,-1.619 0.225,-0.257 0.462,-0.491 0.721,-0.674 0.26,-0.179 0.549,-0.325 0.9,-0.328 0.178,-0.001 0.366,0.045 0.529,0.138 l -0.245,0.436 0.222,-0.448 0.164,0.081 0.422,0.208 -0.183,0.434 c -0.831,1.972 -1.188,3.991 -1.188,6.047 -0.003,4.749 1.926,9.697 4.347,14.44 2.417,4.745 5.312,9.275 7.189,13.252 l -0.905,0.427 c -1.831,-3.888 -4.728,-8.426 -7.175,-13.225 -2.445,-4.8 -4.453,-9.872 -4.456,-14.894 0,-2.171 0.38,-4.332 1.267,-6.435 l 0.46,0.194 -0.221,0.448 -0.164,-0.081 -0.013,-0.006 -0.01,-0.006 -0.04,-0.01 c -0.047,-0.01 -0.258,0.067 -0.496,0.282 -0.361,0.311 -0.771,0.851 -1.086,1.35 -0.159,0.25 -0.297,0.491 -0.4,0.689 -0.103,0.194 -0.173,0.359 -0.186,0.403 -0.471,1.446 -0.34,3.37 -0.468,5.073 -0.041,0.535 -0.06,1.095 -0.06,1.671 -0.001,2.626 0.401,5.569 0.893,7.97 1.15,5.651 5.503,10.737 8.666,15.718 l -0.845,0.535" /><path
           inkscape:connector-curvature="0"
           id="path3561"
           style="fill:#dd873d;fill-opacity:1;fill-rule:nonzero;stroke:none"
           d="m 334.29037,263.11762 c -2.069,-1.977 -5.22,-2.681 -7.568,-4.751 -2.806,-2.47 -5.706,-4.848 -8.678,-7.257 -6.008,-4.861 -9.723,-12.398 -9.054,-20.189 0.65,-7.521 5.247,-12.095 9.934,-17.502 -0.681,4.458 -2.732,9.145 -2.114,13.678 0.611,4.484 1.643,9.232 3.991,13.144 2.511,4.179 5.867,8.018 8.892,11.745 2.434,3 5.42,4.816 8.286,7.22 0.31,0.261 1.118,0.986 1.118,0.986" /><path
           inkscape:connector-curvature="0"
           id="path3563"
           style="fill:#bf935b;fill-opacity:1;fill-rule:nonzero;stroke:none"
           d="m 333.94537,263.47962 c -0.963,-0.922 -2.221,-1.577 -3.561,-2.257 -1.338,-0.682 -2.755,-1.391 -3.993,-2.481 -2.797,-2.462 -5.692,-4.836 -8.662,-7.243 -5.647,-4.57 -9.315,-11.461 -9.317,-18.767 0,-0.615 0.026,-1.234 0.08,-1.854 0.331,-3.854 1.685,-6.97 3.533,-9.775 1.849,-2.808 4.186,-5.316 6.521,-8.011 l 1.135,-1.309 -0.262,1.712 c -0.614,3.966 -2.232,8.006 -2.224,11.852 0,0.566 0.034,1.126 0.11,1.682 0.607,4.458 1.634,9.142 3.925,12.955 2.478,4.127 5.818,7.951 8.852,11.687 2.364,2.921 5.311,4.718 8.218,7.152 0.325,0.274 1.129,0.995 1.131,0.997 l -0.668,0.745 c 0,-10e-4 -0.201,-0.181 -0.441,-0.394 -0.239,-0.213 -0.519,-0.46 -0.665,-0.582 -2.824,-2.374 -5.849,-4.208 -8.352,-7.288 -3.017,-3.718 -6.389,-7.572 -8.932,-11.802 -2.406,-4.012 -3.442,-8.823 -4.059,-13.335 -0.083,-0.605 -0.119,-1.211 -0.119,-1.817 0.008,-4.115 1.66,-8.196 2.235,-12.004 l 0.494,0.076 0.378,0.328 c -2.351,2.711 -4.657,5.194 -6.441,7.906 -1.785,2.713 -3.055,5.645 -3.373,9.311 -0.051,0.591 -0.076,1.181 -0.076,1.768 -0.002,6.965 3.512,13.594 8.946,17.99 2.974,2.409 5.879,4.792 8.694,7.27 1.111,0.98 2.443,1.658 3.785,2.34 1.34,0.683 2.691,1.369 3.798,2.425 l -0.69,0.723" /><path
           inkscape:connector-curvature="0"
           id="path3565"
           style="fill:#dd873d;fill-opacity:1;fill-rule:nonzero;stroke:none"
           d="m 383.66237,205.45462 c -5.354,5.118 -13.933,1.374 -19.647,-0.949 -5.995,-2.441 -11.615,-5.122 -17.948,-7.04 -13.507,-4.094 -27.93,-8.235 -42.423,-9.506 -38.892,-3.41 -79.307,11.332 -104.5052,41.836 -2.909,3.52 -7.5543,14.607 -13.0558,13.373 -4.57,-1.021 -5.5278,-10.802 -6.0219,-14.689 -1.7231,-13.583 10.0285,-19.331 20.6508,-24.417 13.0921,-6.275 27.2871,-14.265 41.5401,-18.388 8.402,-2.43 16.836,-4.033 25.178,-6.488 7.357,-2.161 13.964,-1.957 21.383,-2.8768 26.166,-3.2473 55.342,3.3148 80.146,10.3538 3.819,1.085 8.505,3.044 10.539,6.779 1.914,3.519 5.592,11.27 2.18,14.269" /><path
           inkscape:connector-curvature="0"
           id="path3567"
           style="fill:#bf935b;fill-opacity:1;fill-rule:nonzero;stroke:none"
           d="m 384.00737,205.81662 c -2.069,1.982 -4.622,2.705 -7.239,2.701 -4.521,-0.006 -9.325,-2.083 -12.942,-3.549 -6.013,-2.449 -11.617,-5.121 -17.904,-7.024 -13.502,-4.093 -27.894,-8.223 -42.322,-9.487 -3.661,-0.321 -7.336,-0.48 -11.011,-0.48 -35.206,-0.001 -70.357,14.645 -93.0646,42.136 -0.6536,0.79 -1.4383,2.039 -2.3079,3.456 -1.3085,2.126 -2.8175,4.633 -4.5097,6.636 -0.8473,1.001 -1.741,1.878 -2.6965,2.517 -0.9543,0.638 -1.9836,1.041 -3.0715,1.042 -0.3187,0 -0.6418,-0.035 -0.966,-0.108 -1.3113,-0.294 -2.3266,-1.208 -3.1063,-2.392 -1.1722,-1.782 -1.8871,-4.225 -2.3777,-6.598 -0.4875,-2.37 -0.739,-4.673 -0.9238,-6.124 -0.1168,-0.921 -0.1735,-1.809 -0.1735,-2.665 -0.006,-6.034 2.8297,-10.466 6.8661,-13.91 4.0375,-3.451 9.2781,-5.98 14.2382,-8.356 13.0722,-6.263 27.2862,-14.27 41.6172,-18.417 8.432,-2.438 16.866,-4.041 25.175,-6.488 7.449,-2.184 14.094,-1.976 21.464,-2.8929 4.761,-0.5911 9.619,-0.8582 14.53,-0.859 22.203,0.002 45.484,5.4599 65.814,11.2279 1.934,0.55 4.095,1.321 6.051,2.443 1.954,1.122 3.711,2.6 4.79,4.578 0.681,1.253 1.585,3.037 2.322,4.967 0.736,1.931 1.312,4.004 1.315,5.878 0.003,1.56 -0.417,3.029 -1.566,4.039 l -0.66,-0.752 c 0.863,-0.758 1.223,-1.885 1.226,-3.287 0.002,-1.666 -0.535,-3.655 -1.249,-5.521 -0.714,-1.868 -1.598,-3.618 -2.267,-4.846 -0.954,-1.756 -2.556,-3.126 -4.409,-4.188 -1.85,-1.063 -3.941,-1.814 -5.827,-2.349 -20.294,-5.76 -43.5,-11.1911 -65.54,-11.1891 -4.874,-8e-4 -9.692,0.2652 -14.407,0.8501 -7.47,0.923 -14.039,0.724 -21.304,2.86 -8.373,2.464 -16.808,4.067 -25.18,6.489 -14.175,4.099 -28.352,12.073 -41.4631,18.359 -4.9578,2.372 -10.1274,4.881 -14.0203,8.214 -3.8942,3.342 -6.5094,7.444 -6.5161,13.15 0,0.812 0.054,1.658 0.1657,2.539 0.2468,1.95 0.6101,5.342 1.4672,8.345 0.4269,1.5 0.9793,2.898 1.6765,3.952 0.7004,1.059 1.5188,1.751 2.491,1.967 0.2524,0.057 0.5,0.084 0.7469,0.084 1.1098,0.002 2.2363,-0.555 3.3559,-1.515 1.6777,-1.435 3.2789,-3.736 4.7015,-5.993 1.4289,-2.261 2.6735,-4.464 3.7571,-5.78 22.9257,-27.749 58.3577,-42.498 93.8357,-42.499 3.704,0 7.408,0.161 11.099,0.484 14.558,1.277 29.011,5.431 42.524,9.526 6.379,1.932 12.014,4.622 17.991,7.055 3.619,1.477 8.348,3.481 12.565,3.475 2.446,-0.004 4.689,-0.651 6.548,-2.424 l 0.691,0.722" /><text
           xml:space="preserve"
           style="font-style:normal;font-variant:normal;font-weight:normal;font-stretch:normal;font-size:41.53208542px;line-height:125%;font-family:Pacifico;-inkscape-font-specification:'Pacifico, Normal';text-align:start;letter-spacing:0px;word-spacing:0px;writing-mode:lr-tb;text-anchor:start;fill:#fde5c5;fill-opacity:1;stroke:none;stroke-width:1px;stroke-linecap:butt;stroke-linejoin:miter;stroke-opacity:1"
           id="text3569"
           sodipodi:linespacing="125%"
           transform="matrix(-0.99941666,0.03415158,0.03415158,0.99941666,633.94473,-52.227996)"><textPath
             xlink:href="#path3505"
             id="textPath4518"
             style="font-size:39px"><tspan
   style="font-style:normal;font-variant:normal;font-weight:normal;font-stretch:normal;font-size:39px;line-height:125%;font-family:Pacifico;-inkscape-font-specification:'Pacifico, Normal';text-align:start;writing-mode:lr-tb;text-anchor:start;fill:#fde5c5;fill-opacity:1"
   rotate="0 0 0 0 0 0 0 0 0 0 0 0 0 0 0"
   id="tspan3571"
   dx="50.012745">Bread &amp; Butter</tspan></textPath></text>
</g></g></g></svg>